<?xml version="1.0" standalone="no"?>
<!DOCTYPE svg PUBLIC "-//W3C//DTD SVG 20010904//EN"
 "http://www.w3.org/TR/2001/REC-SVG-20010904/DTD/svg10.dtd">
<svg version="1.0" xmlns="http://www.w3.org/2000/svg"
 width="1711.000000pt" height="1711.000000pt" viewBox="0 0 1711.000000 1711.000000"
 preserveAspectRatio="xMidYMid meet">
<metadata>
Created by potrace 1.14, written by Peter Selinger 2001-2017
</metadata>
<g transform="translate(0.000000,1711.000000) scale(0.100000,-0.100000)"
fill="#000000" stroke="none">
<path d="M7227 17104 c-1 -1 -47 -4 -102 -8 -112 -7 -153 -12 -320 -41 -76
-13 -287 -70 -379 -102 -216 -75 -475 -219 -645 -360 -231 -192 -475 -503
-620 -791 -87 -174 -177 -427 -196 -553 -4 -24 -8 -46 -10 -49 -2 -3 -6 -28
-9 -55 -4 -28 -9 -61 -12 -75 -10 -43 -13 -402 -4 -465 5 -33 12 -83 15 -112
25 -226 152 -609 275 -828 25 -44 47 -84 49 -90 11 -26 130 -198 184 -265 94
-117 236 -255 357 -348 30 -23 60 -46 65 -50 6 -4 30 -21 55 -37 288 -189 660
-334 975 -381 11 -1 36 -5 55 -8 112 -17 328 -23 455 -11 170 15 441 74 594
129 57 21 93 20 118 -1 11 -10 84 -108 163 -218 134 -186 204 -283 250 -345
10 -14 48 -65 84 -115 36 -49 70 -95 75 -102 6 -6 24 -33 41 -60 30 -47 38
-102 19 -128 -15 -21 -140 -454 -154 -535 -19 -103 -22 -136 -18 -145 20 -36
-36 38 -102 135 -90 133 -132 187 -196 251 -197 197 -438 333 -713 404 -128
33 -198 40 -376 40 -153 0 -213 -6 -320 -31 -457 -104 -853 -416 -1047 -824
-52 -110 -102 -262 -117 -360 -3 -19 -7 -44 -10 -55 -2 -11 -7 -42 -10 -70
-13 -87 -13 -87 -258 -166 -123 -39 -322 -104 -443 -144 -377 -124 -449 -147
-468 -150 -39 -8 -74 19 -152 117 -186 235 -449 453 -730 605 -79 42 -241 118
-255 118 -3 0 -9 3 -15 7 -9 5 -163 56 -195 63 -171 41 -234 52 -415 71 -71 7
-279 7 -350 0 -27 -3 -77 -8 -110 -11 -359 -35 -722 -164 -1016 -361 -292
-195 -594 -523 -754 -819 -21 -38 -41 -74 -45 -80 -14 -19 -90 -195 -115 -267
-30 -83 -80 -273 -89 -333 -4 -23 -8 -52 -11 -65 -26 -135 -26 -590 0 -690 2
-8 7 -35 10 -60 12 -91 56 -271 96 -390 139 -422 403 -789 759 -1058 79 -59
217 -152 226 -152 3 0 18 -9 32 -19 47 -33 234 -126 327 -163 104 -41 189 -69
295 -97 104 -27 175 -39 335 -57 76 -9 312 -9 385 0 30 3 78 9 105 11 42 5
257 47 305 60 188 52 306 97 465 176 66 33 129 65 141 72 40 24 159 102 170
112 6 5 22 17 34 25 13 8 59 46 104 84 367 310 635 733 747 1175 37 146 40
157 54 266 4 33 9 69 12 80 2 11 6 106 9 210 4 162 7 194 23 215 14 20 57 38
200 85 100 34 184 62 187 63 2 1 9 4 16 6 7 2 177 58 377 124 410 135 393 133
471 58 36 -34 142 -120 215 -174 76 -55 247 -149 296 -162 21 -6 39 -14 39
-19 0 -6 -103 -40 -125 -41 -22 -2 -227 -81 -296 -115 -85 -41 -229 -130 -285
-176 -87 -70 -246 -244 -305 -334 -103 -155 -193 -364 -223 -520 -4 -16 -9
-41 -11 -55 -16 -78 -20 -141 -20 -280 0 -85 3 -180 8 -210 20 -144 83 -343
153 -482 27 -53 111 -189 123 -198 4 -3 14 -17 23 -31 28 -44 169 -189 242
-248 110 -89 151 -115 333 -210 41 -22 65 -42 72 -59 6 -18 10 -245 9 -640 -1
-696 5 -648 -85 -672 -27 -8 -50 -14 -53 -15 -3 -1 -18 -5 -35 -10 -52 -14
-253 -95 -308 -124 -251 -135 -401 -244 -593 -436 -169 -168 -242 -261 -381
-484 -98 -157 -231 -497 -259 -661 -2 -14 -9 -45 -14 -70 -23 -111 -34 -243
-34 -415 -1 -184 12 -300 49 -470 9 -38 18 -81 21 -95 12 -58 92 -283 131
-370 130 -292 285 -523 483 -720 124 -125 142 -141 239 -213 120 -89 300 -191
476 -268 99 -43 390 -126 505 -144 25 -4 54 -9 65 -11 100 -21 255 -31 425
-29 107 2 206 5 220 8 14 3 45 8 70 12 92 14 106 17 165 32 33 8 67 16 76 18
66 13 259 88 384 150 472 232 850 596 1073 1036 70 138 149 338 166 420 3 13
10 40 15 59 17 54 58 277 67 355 20 194 3 547 -32 667 -3 10 -7 28 -10 40 -47
251 -202 600 -382 858 -102 146 -300 363 -402 439 -19 14 -44 34 -55 44 -24
22 -193 137 -201 137 -3 0 -19 9 -34 20 -16 11 -68 40 -117 64 -136 67 -198
93 -303 130 -102 36 -117 45 -129 75 -7 17 -10 250 -9 661 1 678 0 675 49 701
27 14 246 173 354 256 44 33 105 86 135 117 30 31 57 56 60 56 3 0 6 -75 7
-168 3 -231 10 -303 48 -447 129 -499 482 -879 961 -1039 44 -14 89 -28 100
-30 10 -2 53 -11 94 -19 41 -9 107 -19 145 -23 126 -14 377 -8 445 11 8 2 26
6 40 9 14 3 39 8 55 11 60 12 212 68 290 107 156 79 301 185 425 312 36 36 77
70 92 75 22 8 80 -8 335 -93 169 -56 411 -136 537 -177 157 -51 235 -81 252
-97 23 -23 23 -26 22 -230 -2 -184 3 -294 16 -357 2 -11 7 -42 10 -68 23 -169
118 -441 234 -670 243 -480 590 -817 1057 -1026 137 -61 381 -140 470 -152 2
0 31 -7 62 -14 32 -7 83 -16 113 -20 30 -4 57 -8 60 -10 29 -17 466 -27 583
-12 522 63 954 280 1360 682 393 390 616 870 663 1425 10 126 4 415 -11 470
-2 8 -6 36 -10 62 -7 62 -54 267 -65 287 -4 9 -8 18 -8 21 0 17 -30 109 -63
192 -96 241 -227 463 -394 664 -43 51 -212 223 -261 264 -126 107 -348 250
-483 312 -36 17 -91 42 -121 56 -61 28 -324 116 -392 131 -23 6 -59 13 -78 16
-19 3 -53 10 -75 15 -105 23 -401 32 -540 17 -33 -4 -82 -9 -110 -12 -27 -3
-57 -7 -65 -10 -8 -2 -31 -7 -50 -10 -211 -35 -532 -150 -725 -259 -239 -134
-475 -332 -641 -536 -55 -68 -95 -97 -129 -95 -11 1 -218 68 -460 148 -242 80
-498 164 -570 187 -161 52 -194 79 -210 175 -7 42 -50 186 -65 220 -5 11 -23
54 -41 95 -40 94 -126 259 -146 283 -21 22 -13 22 55 -7 31 -13 122 -44 202
-69 202 -63 231 -68 425 -68 153 -1 222 6 355 32 70 15 72 15 90 21 8 3 49 16
90 28 98 30 329 148 370 190 3 3 23 18 45 35 168 124 338 336 450 560 74 150
105 242 141 420 13 64 12 331 -1 405 -31 175 -29 166 -66 280 -17 52 -56 148
-86 212 -30 65 -55 130 -55 146 -1 34 14 58 192 297 78 105 196 267 263 360
67 94 134 182 149 197 34 31 77 31 152 -2 87 -37 307 -98 421 -116 17 -3 41
-7 55 -10 133 -23 474 -23 610 0 14 3 43 7 65 10 22 2 74 12 115 20 41 9 84
17 95 19 11 2 38 9 60 15 22 6 45 12 50 13 17 3 190 66 246 90 135 57 357 187
463 271 174 137 334 294 452 439 162 201 314 480 380 699 19 65 64 249 69 287
3 26 8 49 10 52 25 41 26 589 1 728 -5 26 -15 83 -21 120 -15 91 -78 320 -104
378 -5 11 -15 36 -22 55 -22 62 -116 245 -167 328 -288 464 -809 856 -1336
1007 -98 28 -247 59 -341 71 -126 17 -511 10 -627 -11 -13 -3 -39 -7 -58 -9
-51 -7 -137 -24 -184 -37 -23 -6 -51 -13 -64 -15 -100 -19 -387 -135 -516
-209 -115 -67 -126 -74 -220 -144 -267 -198 -486 -452 -659 -763 -34 -62 -75
-142 -91 -178 -15 -36 -32 -74 -37 -85 -49 -108 -112 -331 -135 -485 -3 -19
-7 -45 -9 -57 -26 -158 -21 -519 10 -673 2 -13 7 -42 10 -65 5 -32 26 -120 60
-245 10 -40 48 -149 61 -177 8 -17 14 -34 14 -37 0 -19 105 -223 177 -343 91
-153 96 -171 53 -224 -11 -13 -156 -213 -323 -444 l-304 -420 -84 -22 c-77
-19 -104 -21 -315 -17 -229 3 -368 -8 -436 -35 -16 -6 -28 -6 -28 -1 0 5 9 12
20 15 20 6 187 166 224 214 34 45 84 127 121 201 40 80 109 280 119 345 3 22
8 51 10 64 28 132 24 395 -8 526 -2 11 -9 43 -15 70 -46 204 -167 462 -294
625 -328 420 -937 646 -1452 538 -64 -14 -102 -13 -129 1 -11 7 -91 109 -176
228 -156 217 -206 286 -356 488 -44 61 -86 120 -92 132 -25 46 -14 78 66 200
42 65 83 128 90 138 39 62 146 296 180 395 39 113 76 256 87 335 3 22 8 54 12
70 29 146 34 593 8 695 -2 8 -6 38 -10 65 -20 162 -95 396 -190 590 -122 248
-270 450 -477 650 -137 132 -148 142 -269 232 -382 286 -804 430 -1282 437
-49 0 -89 0 -90 0z m1629 -7004 c94 -128 280 -316 391 -393 307 -215 633 -297
1040 -263 46 4 93 9 105 11 12 3 40 7 63 11 22 3 58 9 80 14 49 12 64 12 49 2
-19 -13 -123 -149 -177 -233 -182 -279 -270 -573 -261 -869 3 -118 7 -151 30
-265 35 -177 128 -413 226 -572 l19 -32 -70 24 c-174 59 -347 103 -451 114
-64 7 -344 8 -380 1 -25 -4 -63 -11 -84 -14 -62 -10 -84 -16 -196 -53 -237
-80 -459 -227 -670 -446 l-85 -88 0 183 c-1 205 -5 245 -51 465 -8 43 -64 191
-99 267 -35 73 -119 207 -172 270 -101 124 -275 273 -423 363 -66 40 -230 126
-263 137 -25 8 -13 23 25 32 33 7 140 40 168 51 8 4 17 7 20 7 34 7 217 94
313 149 154 88 363 283 463 432 116 175 209 406 249 620 17 92 32 211 29 220
-7 15 25 -27 112 -145z"/>
</g>
</svg>
